<?xml version="1.0" standalone="no"?>
<!DOCTYPE svg PUBLIC "-//W3C//DTD SVG 20010904//EN"
 "http://www.w3.org/TR/2001/REC-SVG-20010904/DTD/svg10.dtd">
<svg version="1.0" xmlns="http://www.w3.org/2000/svg"
 width="512.000000pt" height="512.000000pt" viewBox="0 0 512.000000 512.000000"
 preserveAspectRatio="xMidYMid meet">
<metadata>
Created by potrace 1.14, written by Peter Selinger 2001-2017
</metadata>
<g transform="translate(0.000000,512.000000) scale(0.100000,-0.100000)"
fill="#000000" stroke="none">
<path d="M1777 3146 c-14 -13 -28 -39 -32 -57 -3 -19 -5 -267 -3 -551 l3 -516
24 -26 c20 -21 34 -26 72 -26 40 0 51 4 73 31 l26 31 0 540 0 540 -29 29 c-38
38 -96 40 -134 5z"/>
<path d="M2352 3129 c-21 -6 -36 -19 -43 -37 -13 -32 -6 -106 11 -127 26 -31
133 -31 165 1 21 21 21 127 -1 148 -8 9 -21 16 -28 16 -8 0 -26 2 -42 4 -16 3
-44 0 -62 -5z"/>
<path d="M2690 3133 c-46 -9 -60 -31 -60 -94 0 -38 5 -63 15 -72 35 -36 143
-32 170 6 17 24 20 99 5 127 -6 11 -27 24 -48 30 -38 10 -40 10 -82 3z"/>
<path d="M703 3095 c-17 -7 -36 -22 -42 -34 -8 -13 -11 -184 -11 -531 l0 -511
25 -25 25 -25 298 3 c334 3 345 5 431 84 56 50 80 99 93 192 20 142 -26 255
-129 318 l-51 30 39 33 c62 52 83 102 83 196 -1 163 -71 250 -225 275 -99 15
-497 12 -536 -5z m513 -219 c30 -30 34 -40 34 -88 0 -32 -6 -62 -16 -76 -31
-45 -63 -52 -224 -52 l-150 0 0 125 0 125 161 0 161 0 34 -34z m31 -429 c18
-9 38 -27 44 -40 35 -64 26 -163 -18 -209 -36 -38 -92 -48 -262 -48 l-151 0 0
161 0 161 178 -4 c142 -3 183 -7 209 -21z"/>
<path d="M3538 2835 c-48 -18 -120 -67 -141 -97 l-16 -23 0 22 c-1 36 -23 74
-52 89 -45 23 -78 17 -115 -20 l-35 -35 3 -375 3 -374 24 -26 c20 -21 34 -26
72 -26 40 0 51 4 73 31 l26 31 0 249 c0 278 3 293 63 346 42 36 86 48 159 41
42 -4 57 -11 79 -36 43 -48 49 -88 49 -350 0 -305 5 -319 115 -310 28 2 44 11
59 31 20 27 21 44 26 290 5 251 6 264 28 299 45 73 176 103 250 58 61 -37 66
-64 72 -368 5 -273 5 -274 29 -293 35 -29 105 -26 136 6 l25 24 0 279 c0 310
-7 366 -54 444 -46 76 -110 108 -220 108 -59 0 -93 -6 -125 -20 -56 -26 -112
-70 -142 -114 l-23 -34 -28 48 c-30 53 -74 91 -127 109 -46 15 -167 13 -213
-4z"/>
<path d="M2223 2805 l-35 -35 4 -277 c4 -259 6 -282 26 -334 32 -80 88 -140
164 -175 59 -27 71 -29 184 -29 119 0 122 1 190 35 49 25 79 49 106 85 67 88
73 123 73 433 l0 274 -33 29 c-18 16 -44 29 -58 29 -32 0 -79 -24 -90 -47 -5
-10 -11 -140 -14 -290 -6 -298 -5 -296 -73 -347 -41 -30 -134 -34 -189 -7 -80
38 -82 48 -88 356 -3 149 -9 278 -14 288 -11 23 -58 47 -92 47 -16 0 -39 -13
-61 -35z"/>
</g>
</svg>
