<svg width="58" height="19" viewBox="0 0 58 19" fill="none" xmlns="http://www.w3.org/2000/svg">
<path d="M8.312 1.2C9.848 1.2 10.992 1.56 11.744 2.28C12.496 3 12.872 4.064 12.872 5.472C12.872 6.224 12.688 6.888 12.32 7.464C11.952 8.024 11.408 8.464 10.688 8.784C9.968 9.088 9.08 9.24 8.024 9.24L8.12 8.16C8.616 8.16 9.184 8.232 9.824 8.376C10.464 8.504 11.08 8.744 11.672 9.096C12.28 9.432 12.776 9.912 13.16 10.536C13.56 11.144 13.76 11.928 13.76 12.888C13.76 13.944 13.584 14.808 13.232 15.48C12.896 16.152 12.448 16.672 11.888 17.04C11.328 17.408 10.728 17.664 10.088 17.808C9.448 17.936 8.832 18 8.24 18H2.264C1.848 18 1.496 17.864 1.208 17.592C0.936 17.304 0.8 16.952 0.8 16.536V2.664C0.8 2.248 0.936 1.904 1.208 1.632C1.496 1.344 1.848 1.2 2.264 1.2H8.312ZM7.88 4.032H3.608L3.92 3.648V7.992L3.632 7.776H7.952C8.416 7.776 8.832 7.624 9.2 7.32C9.568 7.016 9.752 6.576 9.752 6C9.752 5.312 9.576 4.816 9.224 4.512C8.888 4.192 8.44 4.032 7.88 4.032ZM8.072 10.608H3.704L3.92 10.416V15.48L3.68 15.24H8.24C8.976 15.24 9.56 15.048 9.992 14.664C10.424 14.264 10.64 13.672 10.64 12.888C10.64 12.168 10.496 11.648 10.208 11.328C9.92 11.008 9.576 10.808 9.176 10.728C8.776 10.648 8.408 10.608 8.072 10.608ZM19.8363 16.536C19.8363 16.952 19.6923 17.304 19.4043 17.592C19.1323 17.864 18.7883 18 18.3723 18C17.9723 18 17.6363 17.864 17.3643 17.592C17.0923 17.304 16.9563 16.952 16.9563 16.536V1.704C16.9563 1.288 17.0923 0.943999 17.3643 0.671999C17.6523 0.383999 18.0043 0.24 18.4203 0.24C18.8363 0.24 19.1723 0.383999 19.4283 0.671999C19.7003 0.943999 19.8363 1.288 19.8363 1.704V16.536ZM33.0958 5.16C33.5118 5.16 33.8558 5.304 34.1278 5.592C34.3998 5.864 34.5358 6.208 34.5358 6.624V12.72C34.5358 14.416 34.0638 15.76 33.1198 16.752C32.1758 17.744 30.8158 18.24 29.0398 18.24C27.2638 18.24 25.9038 17.744 24.9598 16.752C24.0318 15.76 23.5678 14.416 23.5678 12.72V6.624C23.5678 6.208 23.7038 5.864 23.9758 5.592C24.2478 5.304 24.5918 5.16 25.0078 5.16C25.4238 5.16 25.7678 5.304 26.0398 5.592C26.3118 5.864 26.4478 6.208 26.4478 6.624V12.72C26.4478 13.696 26.6638 14.424 27.0958 14.904C27.5278 15.368 28.1758 15.6 29.0398 15.6C29.9198 15.6 30.5758 15.368 31.0078 14.904C31.4398 14.424 31.6558 13.696 31.6558 12.72V6.624C31.6558 6.208 31.7918 5.864 32.0638 5.592C32.3358 5.304 32.6798 5.16 33.0958 5.16ZM31.3918 3.6C30.8958 3.6 30.5358 3.512 30.3118 3.336C30.0878 3.144 29.9758 2.832 29.9758 2.4V1.968C29.9758 1.504 30.0958 1.192 30.3358 1.032C30.5918 0.855999 30.9598 0.767999 31.4398 0.767999C31.9678 0.767999 32.3438 0.855999 32.5678 1.032C32.8078 1.208 32.9278 1.52 32.9278 1.968V2.4C32.9278 2.88 32.8078 3.2 32.5678 3.36C32.3278 3.52 31.9358 3.6 31.3918 3.6ZM26.6158 3.6C26.1198 3.6 25.7598 3.512 25.5358 3.336C25.3118 3.144 25.1998 2.832 25.1998 2.4V1.968C25.1998 1.52 25.3198 1.208 25.5598 1.032C25.7998 0.855999 26.1518 0.767999 26.6158 0.767999C27.1758 0.767999 27.5678 0.855999 27.7918 1.032C28.0318 1.192 28.1518 1.504 28.1518 1.968V2.4C28.1518 2.88 28.0318 3.2 27.7918 3.36C27.5518 3.52 27.1598 3.6 26.6158 3.6ZM44.8978 4.92C46.1778 4.92 47.1218 5.232 47.7298 5.856C48.3378 6.464 48.7378 7.256 48.9297 8.232L48.5218 8.016L48.7137 7.632C48.9058 7.264 49.2018 6.872 49.6018 6.456C50.0018 6.024 50.4818 5.664 51.0418 5.376C51.6178 5.072 52.2578 4.92 52.9618 4.92C54.1138 4.92 54.9858 5.168 55.5778 5.664C56.1858 6.16 56.6018 6.824 56.8258 7.656C57.0498 8.472 57.1618 9.384 57.1618 10.392V16.536C57.1618 16.952 57.0258 17.304 56.7538 17.592C56.4818 17.864 56.1378 18 55.7218 18C55.3058 18 54.9618 17.864 54.6898 17.592C54.4178 17.304 54.2818 16.952 54.2818 16.536V10.392C54.2818 9.864 54.2178 9.392 54.0898 8.976C53.9618 8.544 53.7298 8.2 53.3938 7.944C53.0578 7.688 52.5778 7.56 51.9538 7.56C51.3458 7.56 50.8258 7.688 50.3938 7.944C49.9618 8.2 49.6338 8.544 49.4098 8.976C49.2018 9.392 49.0978 9.864 49.0978 10.392V16.536C49.0978 16.952 48.9618 17.304 48.6898 17.592C48.4178 17.864 48.0738 18 47.6578 18C47.2418 18 46.8978 17.864 46.6258 17.592C46.3538 17.304 46.2178 16.952 46.2178 16.536V10.392C46.2178 9.864 46.1538 9.392 46.0258 8.976C45.8978 8.544 45.6658 8.2 45.3298 7.944C44.9938 7.688 44.5138 7.56 43.8898 7.56C43.2818 7.56 42.7618 7.688 42.3298 7.944C41.8978 8.2 41.5698 8.544 41.3458 8.976C41.1378 9.392 41.0338 9.864 41.0338 10.392V16.536C41.0338 16.952 40.8978 17.304 40.6258 17.592C40.3538 17.864 40.0098 18 39.5938 18C39.1778 18 38.8338 17.864 38.5618 17.592C38.2898 17.304 38.1538 16.952 38.1538 16.536V6.624C38.1538 6.208 38.2898 5.864 38.5618 5.592C38.8338 5.304 39.1778 5.16 39.5938 5.16C40.0098 5.16 40.3538 5.304 40.6258 5.592C40.8978 5.864 41.0338 6.208 41.0338 6.624V7.656L40.6738 7.584C40.8178 7.312 41.0178 7.024 41.2738 6.72C41.5298 6.4 41.8418 6.104 42.2098 5.832C42.5778 5.56 42.9858 5.344 43.4338 5.184C43.8818 5.008 44.3698 4.92 44.8978 4.92Z" fill="#1C1B1F"/>
</svg>
